<svg width="30" height="30" viewBox="0 0 30 30" fill="none" xmlns="http://www.w3.org/2000/svg">
<path d="M26.7403 22.3248C26.2547 21.8467 20.37 19.5704 19.3022 19.141C18.24 18.7192 17.8163 17.5501 17.8163 17.5501C17.8163 17.5501 17.3381 17.8145 17.3381 17.072C17.3381 16.3285 17.8163 17.5501 18.2944 14.6832C18.2944 14.6832 19.6209 14.311 19.3575 11.2332H19.0388C19.0388 11.2332 19.8356 7.94261 19.0388 6.82886C18.2391 5.71511 17.9259 4.97261 16.17 4.44011C14.4169 3.90855 15.0544 4.01448 13.7812 4.06886C12.5063 4.1223 11.445 4.8123 11.445 5.18261C11.445 5.18261 10.6481 5.23605 10.3313 5.5548C10.0125 5.87355 9.48188 7.35855 9.48188 7.7298C9.48188 8.10105 9.74719 10.5985 10.0125 11.1273L9.69656 11.2304C9.43125 14.3092 10.7578 14.6823 10.7578 14.6823C11.2359 17.5492 11.7141 16.3276 11.7141 17.071C11.7141 17.8135 11.2359 17.5492 11.2359 17.5492C11.2359 17.5492 10.8112 18.7173 9.75 19.1401C8.68875 19.5648 2.7975 21.8467 2.31844 22.3239C1.84031 22.8114 1.89375 25.0389 1.89375 25.0389H13.1775L14.0006 21.7951L13.2694 21.0639L14.5284 19.8029L15.7875 21.0629L15.0562 21.7942L15.8794 25.0379H27.1631C27.1631 25.0379 27.2222 22.8085 26.7384 22.322L26.7403 22.3248Z" fill="#737791"/>
</svg>
