<svg width="30" height="30" viewBox="0 0 30 30" fill="none" xmlns="http://www.w3.org/2000/svg">
<g clip-path="url(#clip0_1191_2)">
<mask id="mask0_1191_2" style="mask-type:luminance" maskUnits="userSpaceOnUse" x="0" y="0" width="30" height="30">
<path d="M30 0H0V30H30V0Z" fill="white"/>
</mask>
<g mask="url(#mask0_1191_2)">
<path d="M12.8164 7.35593L13.1644 12.5309L13.3372 15.1319C13.3391 15.3994 13.3809 15.6651 13.4618 15.9205C13.6704 16.4163 14.1724 16.7313 14.7186 16.7093L23.0401 16.1649C23.4004 16.159 23.7484 16.2938 24.0074 16.5396C24.2233 16.7445 24.3627 17.0125 24.4067 17.3008L24.4214 17.4758C24.0771 22.2441 20.5749 26.2214 15.8164 27.248C11.0579 28.2746 6.1783 26.1059 3.82686 21.9191C3.14896 20.7028 2.72553 19.3659 2.58145 17.9868C2.52126 17.5785 2.49476 17.1661 2.5022 16.7536C2.49476 11.6414 6.13531 7.2217 11.2313 6.15622C11.8447 6.0607 12.446 6.3854 12.6919 6.94492C12.7556 7.07449 12.7976 7.21326 12.8164 7.35593Z" fill="white" stroke="#737791" stroke-width="2"/>
<path opacity="0.4" d="M27.5001 12.2654L27.4914 12.3061L27.4661 12.3653L27.4696 12.528C27.4566 12.7434 27.3734 12.9506 27.2301 13.1181C27.0808 13.2925 26.8768 13.4112 26.6521 13.4574L26.5151 13.4761L16.9141 14.0982C16.5948 14.1297 16.2768 14.0267 16.0394 13.815C15.8414 13.6384 15.7149 13.4001 15.6791 13.1434L15.0348 3.55632C15.0235 3.52391 15.0235 3.48877 15.0348 3.45635C15.0435 3.19209 15.1599 2.9423 15.3578 2.76279C15.5555 2.58327 15.8185 2.489 16.0876 2.50102C21.7875 2.64604 26.578 6.74474 27.5001 12.2654Z" fill="#737791"/>
</g>
</g>
<defs>
<clipPath id="clip0_1191_2">
<rect width="30" height="30" fill="white"/>
</clipPath>
</defs>
</svg>
