<svg width="32" height="33" viewBox="0 0 32 33" fill="none" xmlns="http://www.w3.org/2000/svg">
<mask id="mask0_7_151" style="mask-type:luminance" maskUnits="userSpaceOnUse" x="0" y="0" width="32" height="33">
<rect y="0.5" width="32" height="32" fill="white"/>
</mask>
<g mask="url(#mask0_7_151)">
<path d="M13.6704 8.34582L14.0416 13.8658L14.2259 16.6402C14.2279 16.9255 14.2725 17.209 14.3588 17.4814C14.5813 18.0102 15.1168 18.3462 15.6993 18.3227L24.5756 17.742C24.96 17.7358 25.3312 17.8795 25.6075 18.1418C25.8377 18.3603 25.9864 18.6462 26.0333 18.9536L26.0491 19.1403C25.6817 24.2266 21.9461 28.469 16.8704 29.564C11.7946 30.6591 6.58967 28.3458 4.08147 23.8799C3.35837 22.5824 2.90672 21.1564 2.75303 19.6854C2.68883 19.2499 2.66056 18.81 2.66849 18.37C2.66056 12.917 6.54382 8.20265 11.9796 7.06613C12.6339 6.96425 13.2752 7.3106 13.5376 7.90741C13.6055 8.04562 13.6503 8.19365 13.6704 8.34582Z" fill="white"/>
<path opacity="0.4" d="M29.3335 13.583L29.3242 13.6265L29.2973 13.6897L29.301 13.8632C29.2871 14.0929 29.1983 14.314 29.0455 14.4926C28.8862 14.6786 28.6686 14.8053 28.429 14.8545L28.2829 14.8745L18.0418 15.5381C17.7011 15.5717 17.3619 15.4618 17.1087 15.236C16.8975 15.0476 16.7626 14.7934 16.7245 14.5196L16.0371 4.29337C16.0251 4.2588 16.0251 4.22132 16.0371 4.18673C16.0465 3.90485 16.1706 3.63841 16.3817 3.44693C16.5926 3.25545 16.8731 3.15489 17.1602 3.16772C23.2401 3.3224 28.3499 7.69435 29.3335 13.583Z" fill="white"/>
</g>
</svg>
