<svg width="30" height="30" viewBox="0 0 30 30" fill="none" xmlns="http://www.w3.org/2000/svg">
<path d="M15 10C16.3261 10 17.5979 10.5268 18.5355 11.4645C19.4732 12.4021 20 13.6739 20 15C20 16.3261 19.4732 17.5979 18.5355 18.5355C17.5979 19.4732 16.3261 20 15 20C13.6739 20 12.4022 19.4732 11.4645 18.5355C10.5268 17.5979 10 16.3261 10 15C10 13.6739 10.5268 12.4021 11.4645 11.4645C12.4022 10.5268 13.6739 10 15 10ZM15 12.5C14.337 12.5 13.7011 12.7634 13.2322 13.2322C12.7634 13.7011 12.5 14.337 12.5 15C12.5 15.663 12.7634 16.2989 13.2322 16.7678C13.7011 17.2366 14.337 17.5 15 17.5C15.663 17.5 16.2989 17.2366 16.7678 16.7678C17.2366 16.2989 17.5 15.663 17.5 15C17.5 14.337 17.2366 13.7011 16.7678 13.2322C16.2989 12.7634 15.663 12.5 15 12.5ZM12.5 27.5C12.1875 27.5 11.925 27.275 11.875 26.975L11.4125 23.6625C10.625 23.35 9.95 22.925 9.3 22.425L6.1875 23.6875C5.9125 23.7875 5.575 23.6875 5.425 23.4125L2.925 19.0875C2.8485 18.9587 2.82153 18.8065 2.84913 18.6592C2.87674 18.512 2.95704 18.3798 3.075 18.2875L5.7125 16.2125L5.625 15L5.7125 13.75L3.075 11.7125C2.95704 11.6202 2.87674 11.488 2.84913 11.3408C2.82153 11.1935 2.8485 11.0413 2.925 10.9125L5.425 6.5875C5.575 6.3125 5.9125 6.2 6.1875 6.3125L9.3 7.5625C9.95 7.075 10.625 6.65 11.4125 6.3375L11.875 3.025C11.925 2.725 12.1875 2.5 12.5 2.5H17.5C17.8125 2.5 18.075 2.725 18.125 3.025L18.5875 6.3375C19.375 6.65 20.05 7.075 20.7 7.5625L23.8125 6.3125C24.0875 6.2 24.425 6.3125 24.575 6.5875L27.075 10.9125C27.2375 11.1875 27.1625 11.525 26.925 11.7125L24.2875 13.75L24.375 15L24.2875 16.25L26.925 18.2875C27.1625 18.475 27.2375 18.8125 27.075 19.0875L24.575 23.4125C24.425 23.6875 24.0875 23.8 23.8125 23.6875L20.7 22.4375C20.05 22.925 19.375 23.35 18.5875 23.6625L18.125 26.975C18.075 27.275 17.8125 27.5 17.5 27.5H12.5ZM14.0625 5L13.6 8.2625C12.1 8.575 10.775 9.375 9.8125 10.4875L6.8 9.1875L5.8625 10.8125L8.5 12.75C8 14.2083 8 15.7917 8.5 17.25L5.85 19.2L6.7875 20.825L9.825 19.525C10.7875 20.625 12.1 21.425 13.5875 21.725L14.05 25H15.95L16.4125 21.7375C17.9 21.425 19.2125 20.625 20.175 19.525L23.2125 20.825L24.15 19.2L21.5 17.2625C22 15.8 22 14.2125 21.5 12.75L24.1375 10.8125L23.2 9.1875L20.1875 10.4875C19.2053 9.3504 17.8729 8.57209 16.4 8.275L15.9375 5H14.0625Z" fill="#737791"/>
</svg>
