<svg width="17" height="17" viewBox="0 0 17 17" fill="none" xmlns="http://www.w3.org/2000/svg">
<path d="M7.70837 4.54134H9.29171V6.12467H7.70837V4.54134ZM7.70837 7.70801H9.29171V12.458H7.70837V7.70801ZM8.50004 0.583008C4.13004 0.583008 0.583374 4.12967 0.583374 8.49967C0.583374 12.8697 4.13004 16.4163 8.50004 16.4163C12.87 16.4163 16.4167 12.8697 16.4167 8.49967C16.4167 4.12967 12.87 0.583008 8.50004 0.583008ZM8.50004 14.833C5.00879 14.833 2.16671 11.9909 2.16671 8.49967C2.16671 5.00842 5.00879 2.16634 8.50004 2.16634C11.9913 2.16634 14.8334 5.00842 14.8334 8.49967C14.8334 11.9909 11.9913 14.833 8.50004 14.833Z" fill="#8C96A0"/>
</svg>
