<svg width="67" height="66" viewBox="0 0 67 66" fill="none" xmlns="http://www.w3.org/2000/svg">
<path d="M33.5 56.76C25.125 56.76 17.7215 52.536 13.4 46.2C13.5005 39.6 26.8 35.97 33.5 35.97C40.2 35.97 53.4995 39.6 53.6 46.2C49.2785 52.536 41.875 56.76 33.5 56.76ZM33.5 9.9C36.1654 9.9 38.7217 10.943 40.6064 12.7996C42.4912 14.6563 43.55 17.1744 43.55 19.8C43.55 22.4256 42.4912 24.9437 40.6064 26.8004C38.7217 28.657 36.1654 29.7 33.5 29.7C30.8346 29.7 28.2783 28.657 26.3936 26.8004C24.5088 24.9437 23.45 22.4256 23.45 19.8C23.45 17.1744 24.5088 14.6563 26.3936 12.7996C28.2783 10.943 30.8346 9.9 33.5 9.9ZM33.5 0C29.1007 0 24.7445 0.85357 20.6801 2.51198C16.6157 4.17038 12.9227 6.60114 9.81192 9.66548C3.52945 15.8542 0 24.2479 0 33C0 41.7521 3.52945 50.1458 9.81192 56.3345C12.9227 59.3989 16.6157 61.8296 20.6801 63.488C24.7445 65.1464 29.1007 66 33.5 66C42.3848 66 50.9056 62.5232 57.1881 56.3345C63.4705 50.1458 67 41.7521 67 33C67 14.751 51.925 0 33.5 0Z" fill="black"/>
</svg>
